<?xml version="1.0"?>
<svg id="Layer_2" data-name="Layer 2" xmlns="http://www.w3.org/2000/svg" fill="#ffffff" viewBox="0 0 261.63 75.35">
  <defs>
  </defs>
  <g id="Laag_1" data-name="Laag 1">
    <g>
      <path class="cls-1" d="M261.15,15.33s-1.03-.43-2.16-.43c-4.91,0-9.15,2.37-11.87,6.43v-4.59c0-.43-.35-.78-.78-.78h-10.4c-.43,0-.78.35-.78.78v42.6c0,.43.35.78.78.78h10.4c.43,0,.78-.35.78-.78v-17.29c0-2.64.12-4.78.72-6.66,1.94-6.15,6.77-8.35,10.64-8.35,1.31,0,2.22.15,2.23.16.22.04.46-.03.63-.17.17-.15.27-.36.27-.59v-10.39c0-.31-.19-.6-.47-.72Z"></path>
      <path class="cls-1" d="M100.07,14.97h-12.1c-.41,0-.75.33-.75.75v12.1c2.49-5.74,7.1-10.36,12.84-12.84Z"></path>
      <path class="cls-1" d="M109.82,14.97c-12.48,0-22.59,10.11-22.59,22.59s10.11,22.59,22.59,22.59,22.59-10.11,22.59-22.59-10.11-22.59-22.59-22.59ZM109.98,49.5c-6.5,0-11.78-5.27-11.78-11.78s5.27-11.78,11.78-11.78,11.78,5.27,11.78,11.78-5.27,11.78-11.78,11.78Z"></path>
      <path class="cls-1" d="M210.26,14.9c-12.94,0-21.97,9.3-21.97,22.61s9.76,22.61,23.2,22.61c10.58,0,17.04-5.93,17.31-6.18.25-.24.31-.62.15-.92l-4.01-7.44c-.11-.2-.3-.35-.53-.39-.23-.04-.46.02-.64.16-.05.04-5.18,4.22-11.55,4.22s-10.83-3.6-11.67-9.69h27.97c.4,0,.73-.3.76-.69.01-.11.25-2.65.25-3.9,0-12.38-7.57-20.38-19.28-20.38ZM200.97,31.31c1.11-4.61,4.29-7.14,9.05-7.14,4.24,0,7.04,2.71,7.45,7.14h-16.51Z"></path>
      <path class="cls-1" d="M20.04,32.75c-3.55-1.43-6.62-2.66-6.62-4.49,0-2.21,2.45-3,4.55-3,5.98,0,10.98,3.65,11.02,3.68.17.17.42.24.66.19.24-.04.44-.19.55-.41l2.54-7.98c.15-.29.09-.64-.13-.88-.2-.2-4.93-4.98-14.56-4.98S1.31,20.14,1.31,27.93c0,8.5,7.48,11.56,13.49,14.02,3.66,1.5,6.82,2.79,6.82,4.8s-2.37,2.99-4.72,2.99c-6.38,0-13.12-4.6-13.17-4.65-.16-.16-.41-.25-.62-.22-.23.02-.44.15-.57.34L.12,52.8c-.19.3-.16.69.09.95.25.26,6.16,6.37,16.77,6.37,9.86,0,16.74-5.46,16.74-13.28,0-8.59-7.91-11.76-13.68-14.08Z"></path>
      <path class="cls-1" d="M62.75,14.95c-6.33,0-10.19,2.82-12.24,5.02.02-.19.02-.37.02-.55v-2.76c0-.42-.34-.77-.77-.77h-10.29c-.42,0-.77.34-.77.77v57.91c0,.42.34.77.77.77h10.29c.42,0,.77-.34.77-.77v-17.61c0-.54.02-.99.05-1.36,1.65,1.68,5.38,4.57,11.6,4.57,11.68,0,19.84-9.3,19.84-22.62s-7.74-22.62-19.27-22.62ZM60.29,49.58c-6.62,0-9.63-6.26-9.63-12.08,0-9.15,5.02-12.4,9.71-12.4,5.76,0,9.63,4.95,9.63,12.32s-3.9,12.16-9.72,12.16Z"></path>
      <path class="cls-1" d="M158.15,48.82c-.22.02-.79.03-1.11.03-2.87,0-7.69-.92-7.69-7.08v-15.42h6.85l2.86-8.84c-.1-.31-.38-.54-.72-.54h-8.98V6.23c0-.43-.34-.77-.77-.77h-10.29c-.43,0-.77.34-.77.77v36.84c0,14.87,12.77,16.47,18.26,16.47.94,0,1.62-.05,2.35-.11l.27-.02c.4-.03.71-.36.71-.77v-9.08c0-.49-.5-.86-.95-.74Z"></path>
      <path class="cls-1" d="M185.77,48.82c-.19.02-.66.03-.96.03-2.82,0-7.55-.92-7.55-7.09V.88s0,0,0,0v-.1c0-.43-.34-.77-.77-.77h-10.29c-.43,0-.77.34-.77.77v42.3c0,14.87,12.68,16.47,18.13,16.47.87,0,1.43-.05,2.06-.1l.42-.04c.4-.03.71-.36.71-.76v-9.08c0-.49-.51-.87-.96-.74Z"></path>
    </g>
  </g>
</svg>
